<svg width="16" height="13" viewBox="0 0 16 13" fill="none" xmlns="http://www.w3.org/2000/svg">
<path fill-rule="evenodd" clip-rule="evenodd" d="M8.09354 0.41695C8.61041 -0.0999207 9.44842 -0.0999207 9.96529 0.41695L15.1118 5.56346C15.112 5.56364 15.1122 5.56383 15.1123 5.56401C15.1133 5.56494 15.1142 5.56588 15.1151 5.56682C15.2407 5.69306 15.3355 5.83831 15.3996 5.99326C15.4643 6.14931 15.5 6.32043 15.5 6.49989C15.5 6.67934 15.4643 6.85046 15.3996 7.00651C15.336 7.16013 15.2423 7.30421 15.1184 7.42969C15.1161 7.43197 15.1139 7.43424 15.1116 7.43651L9.96529 12.5828C9.44842 13.0997 8.61041 13.0997 8.09354 12.5828C7.57666 12.066 7.57666 11.2279 8.09354 10.7111L10.9812 7.82341H1.82353C1.09256 7.82341 0.5 7.23085 0.5 6.49989C0.5 5.76892 1.09256 5.17636 1.82353 5.17636H10.9812L8.09354 2.2887C7.57666 1.77183 7.57666 0.93382 8.09354 0.41695Z" fill="black"/>
</svg>
