<svg width="16" height="13" viewBox="0 0 16 13" fill="none" xmlns="http://www.w3.org/2000/svg">
<path d="M13.5452 1.06345C12.5077 0.58732 11.4129 0.247496 10.2882 0.0524524C10.278 0.0507363 10.2675 0.0522185 10.2582 0.0566952C10.2489 0.061172 10.2412 0.0684234 10.2362 0.0774524C10.0952 0.327452 9.93917 0.654452 9.83017 0.910452C8.61778 0.726461 7.38456 0.726461 6.17217 0.910452C6.05058 0.625272 5.91303 0.347165 5.76017 0.0774524C5.75504 0.0685223 5.74733 0.0613544 5.73804 0.056892C5.72876 0.0524297 5.71835 0.050882 5.70817 0.0524524C4.58317 0.246452 3.48817 0.586452 2.45117 1.06345C2.4423 1.06684 2.43487 1.0732 2.43017 1.08145C0.356169 4.18045 -0.212831 7.20345 0.0661689 10.1885C0.0671689 10.2025 0.0761689 10.2165 0.0871689 10.2255C1.29489 11.1201 2.64576 11.8031 4.08217 12.2455C4.09231 12.2487 4.10321 12.2485 4.11328 12.2451C4.12335 12.2417 4.13207 12.2352 4.13817 12.2265C4.44617 11.8065 4.72017 11.3635 4.95617 10.8975C4.96109 10.8879 4.96277 10.8769 4.96097 10.8663C4.95917 10.8557 4.95398 10.8459 4.94617 10.8385C4.941 10.8336 4.93487 10.8298 4.92817 10.8275C4.49733 10.6619 4.08006 10.4629 3.68017 10.2325C3.669 10.2261 3.66069 10.2157 3.65697 10.2035C3.65325 10.1912 3.65439 10.1779 3.66017 10.1665C3.66357 10.159 3.66872 10.1525 3.67517 10.1475C3.75917 10.0845 3.84317 10.0185 3.92317 9.95245C3.93024 9.94677 3.93872 9.94312 3.9477 9.94188C3.95668 9.94065 3.96583 9.94188 3.97417 9.94545C6.59317 11.1415 9.42817 11.1415 12.0152 9.94545C12.0238 9.94171 12.0333 9.94039 12.0426 9.94162C12.052 9.94285 12.0608 9.9466 12.0682 9.95245C12.1482 10.0185 12.2322 10.0845 12.3162 10.1475C12.323 10.1524 12.3284 10.159 12.3321 10.1666C12.3357 10.1742 12.3374 10.1826 12.337 10.191C12.3366 10.1994 12.3341 10.2076 12.3298 10.2149C12.3255 10.2221 12.3194 10.2281 12.3122 10.2325C11.9132 10.465 11.4954 10.6637 11.0632 10.8265C11.0563 10.8289 11.05 10.8329 11.0448 10.8381C11.0396 10.8433 11.0357 10.8496 11.0332 10.8565C11.0309 10.8631 11.0299 10.8702 11.0304 10.8773C11.031 10.8843 11.0329 10.8912 11.0362 10.8975C11.2762 11.3625 11.5512 11.8065 11.8532 12.2265C11.8593 12.2352 11.868 12.2417 11.8781 12.2451C11.8881 12.2485 11.899 12.2487 11.9092 12.2455C13.348 11.8045 14.701 11.1214 15.9102 10.2255C15.9162 10.2213 15.9213 10.2158 15.9249 10.2094C15.9285 10.2029 15.9307 10.1958 15.9312 10.1885C16.2652 6.73745 15.3722 3.73945 13.5652 1.08245C13.5633 1.07806 13.5606 1.07411 13.5572 1.07083C13.5537 1.06756 13.5496 1.06505 13.5452 1.06345ZM5.34717 8.37045C4.55817 8.37045 3.90917 7.64645 3.90917 6.75845C3.90917 5.86945 4.54617 5.14545 5.34717 5.14545C6.15417 5.14545 6.79717 5.87545 6.78517 6.75845C6.78517 7.64645 6.14817 8.37045 5.34717 8.37045ZM10.6632 8.37045C9.87517 8.37045 9.22517 7.64645 9.22517 6.75845C9.22517 5.86945 9.86217 5.14545 10.6632 5.14545C11.4702 5.14545 12.1142 5.87545 12.1012 6.75845C12.1012 7.64645 11.4702 8.37045 10.6632 8.37045Z" fill="white"/>
</svg>
