<svg width="24" height="24" viewBox="0 0 24 24" fill="none" xmlns="http://www.w3.org/2000/svg">
<path fill-rule="evenodd" clip-rule="evenodd" d="M12.191 5.62892L5.22571 10.8576C5.07203 10.9729 5.15361 11.2175 5.34577 11.2175H18.6551C18.8426 11.2175 18.927 10.9825 18.7823 10.8632L12.4383 5.63453C12.367 5.57581 12.2648 5.57349 12.191 5.62892ZM7.32849 11.6227V17.9112C7.32849 18.1873 7.55235 18.4112 7.82849 18.4112H16.1301C16.4063 18.4112 16.6301 18.1873 16.6301 17.9112V11.6227H7.32849Z" fill="white"/>
<path d="M5.22571 10.8576L4.92553 10.4577L4.92553 10.4577L5.22571 10.8576ZM12.191 5.62892L11.8908 5.22905L11.8908 5.22905L12.191 5.62892ZM18.7823 10.8632L19.1003 10.4773L19.1003 10.4773L18.7823 10.8632ZM12.4383 5.63453L12.1203 6.02037V6.02037L12.4383 5.63453ZM7.32849 11.6227V11.1227H6.82849V11.6227H7.32849ZM16.6301 11.6227H17.1301V11.1227H16.6301V11.6227ZM5.52588 11.2574L12.4912 6.02879L11.8908 5.22905L4.92553 10.4577L5.52588 11.2574ZM5.34577 10.7175C5.63402 10.7175 5.75639 11.0844 5.52588 11.2574L4.92553 10.4577C4.38767 10.8615 4.67321 11.7175 5.34577 11.7175V10.7175ZM18.6551 10.7175H5.34577V11.7175H18.6551V10.7175ZM18.4642 11.249C18.2471 11.07 18.3736 10.7175 18.6551 10.7175V11.7175C19.3117 11.7175 19.6069 10.8949 19.1003 10.4773L18.4642 11.249ZM12.1203 6.02037L18.4642 11.249L19.1003 10.4773L12.7563 5.24869L12.1203 6.02037ZM12.4912 6.02879C12.3804 6.11193 12.2271 6.10845 12.1203 6.02037L12.7563 5.24869C12.5069 5.04316 12.1493 5.03505 11.8908 5.22905L12.4912 6.02879ZM7.82849 17.9112V11.6227H6.82849V17.9112H7.82849ZM7.82849 17.9112H6.82849C6.82849 18.4634 7.27621 18.9112 7.82849 18.9112V17.9112ZM16.1301 17.9112H7.82849V18.9112H16.1301V17.9112ZM16.1301 17.9112V18.9112C16.6824 18.9112 17.1301 18.4634 17.1301 17.9112H16.1301ZM16.1301 11.6227V17.9112H17.1301V11.6227H16.1301ZM7.32849 12.1227H16.6301V11.1227H7.32849V12.1227Z" fill="white"/>
</svg>
