<svg width="16" height="14" viewBox="0 0 16 14" fill="none" xmlns="http://www.w3.org/2000/svg">
<path d="M5.026 13.6501C11.064 13.6501 14.367 8.64711 14.367 4.31611C14.367 4.17611 14.367 4.03411 14.361 3.89411C15.0041 3.42859 15.5591 2.85226 16 2.19211C15.3993 2.45696 14.7628 2.63151 14.111 2.71011C14.7975 2.29974 15.3117 1.65408 15.558 0.893107C14.913 1.27523 14.207 1.54348 13.471 1.68611C12.9762 1.15913 12.3214 0.810025 11.6081 0.692865C10.8948 0.575704 10.1627 0.697029 9.52534 1.03804C8.88796 1.37906 8.38081 1.92074 8.08245 2.57917C7.78409 3.2376 7.71118 3.97604 7.875 4.68011C6.56974 4.61466 5.29282 4.27558 4.12704 3.68485C2.96127 3.09412 1.93268 2.26495 1.108 1.25111C0.68934 1.97419 0.561574 2.82951 0.750646 3.64337C0.939718 4.45724 1.43145 5.16864 2.126 5.63311C1.60554 5.61542 1.09652 5.47567 0.64 5.22511V5.27011C0.640897 6.02759 0.903307 6.76153 1.38287 7.34787C1.86244 7.93421 2.52975 8.33698 3.272 8.48811C2.99026 8.56572 2.69923 8.60441 2.407 8.60311C2.20098 8.60373 1.99538 8.58464 1.793 8.54611C2.00279 9.19816 2.41127 9.76827 2.96125 10.1766C3.51122 10.5849 4.17513 10.811 4.86 10.8231C3.69656 11.7369 2.2594 12.2325 0.78 12.2301C0.519321 12.2312 0.258823 12.2162 0 12.1851C1.50151 13.1424 3.2453 13.6507 5.026 13.6501Z" fill="white"/>
</svg>
